PathFileType	4	(X/Y/Z)	Kaydara	
DataRate	CameraRate	NumFrames	NumMarkers	Units	OrigDataRate	OrigDataStartFrame	OrigNumFrames	
120.00	120.00	4	72	mm	120.00	1	261	
Frame#	Time	Hips			RightUpLeg			RightLeg			RightFoot			RightFoot_End			LeftUpLeg			LeftLeg			LeftFoot			LeftFoot_End			Spine			Spine1			Spine2			Spine3			Neck			Head			Head_End			RightShoulder			RightArm			RightForeArm			RightHand			RightHandThumb1			RightHandThumb2			RightHandThumb3			RightHandThumb3_End			RightInHandIndex			RightHandIndex1			RightHandIndex2			RightHandIndex3			RightHandIndex3_End			RightInHandMiddle			RightHandMiddle1			RightHandMiddle2			RightHandMiddle3			RightHandMiddle3_End			RightInHandRing			RightHandRing1			RightHandRing2			RightHandRing3			RightHandRing3_End			RightInHandPinky			RightHandPinky1			RightHandPinky2			RightHandPinky3			RightHandPinky3_End			LeftShoulder			LeftArm			LeftForeArm			LeftHand			LeftHandThumb1			LeftHandThumb2			LeftHandThumb3			LeftHandThumb3_End			LeftInHandIndex			LeftHandIndex1			LeftHandIndex2			LeftHandIndex3			LeftHandIndex3_End			LeftInHandMiddle			LeftHandMiddle1			LeftHandMiddle2			LeftHandMiddle3			LeftHandMiddle3_End			LeftInHandRing			LeftHandRing1			LeftHandRing2			LeftHandRing3			LeftHandRing3_End			LeftInHandPinky			LeftHandPinky1			LeftHandPinky2			LeftHandPinky3			LeftHandPinky3_End			
		X1	Y1	Z1	X2	Y2	Z2	X3	Y3	Z3	X4	Y4	Z4	X5	Y5	Z5	X6	Y6	Z6	X7	Y7	Z7	X8	Y8	Z8	X9	Y9	Z9	X10	Y10	Z10	X11	Y11	Z11	X12	Y12	Z12	X13	Y13	Z13	X14	Y14	Z14	X15	Y15	Z15	X16	Y16	Z16	X17	Y17	Z17	X18	Y18	Z18	X19	Y19	Z19	X20	Y20	Z20	X21	Y21	Z21	X22	Y22	Z22	X23	Y23	Z23	X24	Y24	Z24	X25	Y25	Z25	X26	Y26	Z26	X27	Y27	Z27	X28	Y28	Z28	X29	Y29	Z29	X30	Y30	Z30	X31	Y31	Z31	X32	Y32	Z32	X33	Y33	Z33	X34	Y34	Z34	X35	Y35	Z35	X36	Y36	Z36	X37	Y37	Z37	X38	Y38	Z38	X39	Y39	Z39	X40	Y40	Z40	X41	Y41	Z41	X42	Y42	Z42	X43	Y43	Z43	X44	Y44	Z44	X45	Y45	Z45	X46	Y46	Z46	X47	Y47	Z47	X48	Y48	Z48	X49	Y49	Z49	X50	Y50	Z50	X51	Y51	Z51	X52	Y52	Z52	X53	Y53	Z53	X54	Y54	Z54	X55	Y55	Z55	X56	Y56	Z56	X57	Y57	Z57	X58	Y58	Z58	X59	Y59	Z59	X60	Y60	Z60	X61	Y61	Z61	X62	Y62	Z62	X63	Y63	Z63	X64	Y64	Z64	X65	Y65	Z65	X66	Y66	Z66	X67	Y67	Z67	X68	Y68	Z68	X69	Y69	Z69	X70	Y70	Z70	X71	Y71	Z71	X72	Y72	Z72	

1	0.0	6081.203	893.81699	129.612	6137.772009826907	877.1880981858636	58.87179917489894	6054.782787890547	480.03613798020973	-47.16655330103852	6058.926173859796	99.71791102333343	-119.29315392087173	5949.6841943083655	20.057383287815686	14.882911534204815	6040.659850767348	886.4151421751883	213.97735485207812	5952.439630051327	490.08960157458654	317.0581539737459	5873.4644891371245	55.53151593615411	376.6946595856369	5727.395021218039	-24.227358330899797	281.7380680903088	6012.028060976448	1007.369631275932	77.76936755569004	5947.260689846407	1061.2068317856229	29.860015704157444	5875.411535103178	1109.8748170050783	-21.665483512300405	5800.241101181795	1143.5517820216194	-72.75057894711644	5719.82824281206	1181.7356640880034	-125.75133611352385	5647.400938481265	1217.2592743665082	-174.0624492072666	5509.512278560028	1296.7682494228034	-184.04571159800489	5759.743908777563	1158.474842513047	-136.01640100343877	5786.919976804536	1081.6018362246632	-242.3369561746601	5747.322838135156	828.0160001567631	-144.46677579318487	5708.726932614149	561.2654964645848	-102.57342521826506	5682.666925588587	529.0525627312891	-122.43075438887787	5652.123768140141	501.60853485102837	-109.97011111698804	5633.599074690252	482.08687101110115	-97.29217031554234	5620.504585323252	465.46206421353946	-83.30093316781232	5691.087653071974	523.4040227473472	-112.1514135124252	5670.113321704067	469.3249521025299	-102.25408958971894	5650.338008929213	438.2324470375816	-83.40707291084905	5634.591844462164	427.02276091164276	-69.15195605043321	5619.230365040694	423.22204668722776	-55.641084255690416	5699.0389761231845	524.4830406282244	-101.04715507954259	5682.883593424354	472.31771117164794	-85.39071431141441	5662.41552120658	438.71556141536666	-63.37685297216896	5643.951348846497	425.3479324878815	-45.48371288757025	5627.402214454555	421.2653199028582	-30.362568751577783	5705.258181501069	526.5455190049524	-93.54787586660704	5696.372620901871	481.35170619186715	-73.27967901383587	5679.692573133687	452.48020065177116	-52.635938004416744	5662.498433061418	439.8071369803927	-34.603153522018644	5647.229985681178	436.0732278967629	-20.018959138707828	5712.511011176748	531.1184557432487	-84.45617326423769	5709.0484844321	492.20073617152434	-60.57122587228193	5697.539705482412	469.9285854982371	-41.856063768734245	5685.892163037049	461.0945632554964	-27.64620679400744	5672.881270694132	458.02275145247785	-14.118846280166522	5732.6545796853	1178.2379367499839	-79.44919926784804	5717.591566525327	1164.300454787829	52.036659867089526	5789.6699031912785	904.8272793729433	-10.185280193148316	5840.46852061561	650.7485281334716	-76.90301366052537	5827.900013260753	626.8753158621838	-111.58644800222257	5844.292863277412	608.0593791562019	-140.96082931578698	5858.290389938808	593.624229312798	-157.6857718943088	5872.16795203845	580.451017431849	-168.43653288682248	5833.72969899631	618.4781197874856	-101.23027255025693	5842.843750912307	570.4263794671277	-125.27267349114119	5861.31848412931	544.6414258999891	-142.87087973567284	5876.653525683241	537.6258563169633	-155.4615371418879	5891.942817968931	537.8999268107829	-166.9957175970644	5841.010514664453	616.8923274699109	-90.28591457537976	5853.834812759605	569.1641747852203	-107.81609331430057	5874.940702405108	540.983841115097	-125.4982449933928	5893.8959703470955	532.4988213134086	-139.95854758614703	5910.8459803204605	532.7885023624846	-152.2242062451909	5845.81732603965	616.902189043263	-81.91178856647232	5861.177384568306	573.8559486121985	-90.26985200898605	5880.521492572204	549.325359592601	-104.09976614603593	5899.308875955762	541.1576272827981	-117.20779149608336	5915.484767242214	541.4379496767682	-128.3425039733439	5851.916623123001	619.0618235531431	-71.78744098188004	5869.417258918982	580.5738718167219	-73.12420587340648	5886.3202966764375	561.1682462072381	-81.69448646674405	5900.707402333257	555.3255918937366	-90.04416146752371	5915.4299843152385	555.6400446228539	-99.21055524805153
2	0.008	6081.203	893.81699	129.612	6137.960032401874	877.29102211753	58.88514753293991	6054.711882515567	480.1715835489541	-47.05277309894768	6058.876776136841	99.75192159647965	-118.84262144645328	5949.527061701946	20.163671039100215	15.33247286481938	6040.465096714511	886.3005483770545	213.95456551014982	5952.258212221388	489.9861088923523	317.10261133760974	5873.290992980122	55.42835371692665	376.9719627307914	5727.064517392555	-24.175325318771755	282.13636436228444	6012.041867841469	1007.4155182025237	77.83233403616941	5947.287691578958	1061.2933552058828	29.94583572893841	5875.454080819204	1110.006232971771	-21.565143441725883	5800.303890444125	1143.73074482659	-72.65755203044479	5719.912722841368	1181.966470597933	-125.66027965878692	5647.518073072751	1217.5383565694212	-173.98551970402673	5509.649463029739	1297.0828135485747	-183.95460571852846	5759.898682738875	1158.7747583636217	-135.96194907183119	5787.431341405177	1082.3483503991126	-242.61596642920833	5747.561280433975	828.1553251434277	-145.78979688069353	5709.618316516082	560.7530129502113	-104.77075078359476	5683.766275941079	528.510562081388	-124.88106748956737	5653.251290246604	500.93611367536266	-112.67758650475739	5634.725053309502	481.3137417675308	-100.16665381754646	5621.611173609662	464.59652421054807	-86.30431020852747	5692.144853195955	522.830140068235	-114.58149088170732	5671.282079212061	468.5934839448222	-104.99570300605998	5651.506253104844	437.3579053181129	-86.36625650723303	5635.725456896432	426.0612106296094	-72.23249253116438	5620.312167827257	422.1897881576367	-58.81268146001118	5700.031021278142	523.8861741548718	-103.43357096631159	5683.949228242326	471.55471821485673	-88.05737636656787	5663.471539415328	437.79388347320366	-66.27415682819198	5644.961239068354	424.32005192186296	-48.524175434883944	5628.353302735925	420.1594737809823	-33.50108873283736	5706.20202530813	525.9366791145565	-95.89547020992065	5697.342555167543	480.5843017716817	-75.84465742945336	5680.644745346437	451.5721250638782	-55.3945829829882	5663.401129683211	438.7953668325885	-37.49597702288153	5648.075033051249	434.9875563522809	-23.002128645394862	5713.390732324916	530.4984648377925	-86.75019360332676	5709.914913173914	491.4292016028399	-63.031618742457624	5698.3771581625515	469.04141333299833	-44.45910496066773	5686.686391531618	460.13030782189946	-30.34110410084672	5673.620324229512	456.99219810389627	-16.890314314061584	5732.652936501443	1178.3611271440539	-79.32550815144388	5717.285053806023	1163.9310133327915	52.18901573724254	5789.874802310912	904.6228345807134	-10.85905026807518	5841.295999897841	650.4964798269597	-78.44914970892154	5828.951491467404	626.6795649720029	-113.31717227807883	5845.542869132013	607.954737742378	-142.72096666672874	5859.662818071951	593.572627398135	-159.45889880525783	5873.628894217242	580.4347274073126	-170.2140780011218	5834.745990903197	618.2439411164473	-102.96765827111496	5844.085476529858	570.2080986665478	-127.20270086638754	5862.711656981429	544.4677478348077	-144.8463583589279	5878.133275395604	537.5055631870678	-157.40779153016715	5893.489115706201	537.8411256946474	-168.8790100130052	5841.97564041163	616.630878410173	-91.9920019413502	5854.992145583631	568.9034718857606	-109.69317358982244	5876.2558049258105	540.7682007571982	-127.4200563619221	5895.311930685547	532.3458565893561	-141.84276600018455	5912.33300917393	532.7019793988245	-154.0383978047382	5846.740546744365	616.6206622794818	-83.59173681479606	5862.236474282282	573.556475499829	-92.08295464528734	5881.710137344111	549.0614787350705	-105.94660444221184	5900.590580080125	540.9522455611741	-119.01557908364387	5916.8312910480345	541.294112787731	-130.0831267902915	5852.785042275162	618.7598895715934	-73.42467764095613	5870.37657251377	580.2415411369554	-74.86028495485672	5887.370345779535	560.8587498012889	-83.44879861595015	5901.819037255318	555.0560237145985	-91.76574215983035	5916.595417661413	555.4234176540108	-100.87019422606825
3	0.017	6081.203	893.81699	129.612	6138.168246073482	877.4107224393244	58.91703761503161	6054.6431194033885	480.32168967901816	-46.8905928890518	6058.816980893529	99.79504773576124	-118.3085886575661	5949.357296325553	20.28526798194971	15.868714366811247	6040.247938596781	886.1674178217255	213.9124758295294	5952.044271849833	489.8690678989643	317.13682621090237	5873.067116163588	55.331672938681365	377.3050007553772	5726.673581378561	-24.089782671438464	282.5893495811248	6012.062223289097	1007.4673459533748	77.90006074115153	5947.324775241235	1061.391793535316	30.038718860773063	5875.510610812295	1110.1565112817175	-21.456235808436567	5800.385352890607	1143.9369650439955	-72.5567478928353	5720.020160346931	1182.2331439608527	-125.56117931698655	5647.657897408938	1217.8575512937377	-173.8968206939123	5509.8108810513095	1297.4405796773526	-183.84818056009084	5760.082104889259	1159.1248977388307	-135.89439455477043	5788.010621266069	1083.2359830154144	-242.87564514811308	5747.928854136207	828.4380885372244	-147.25041429992953	5710.786592695162	560.4255077846126	-107.20292509841701	5685.173807954211	528.1746397391498	-127.58108889058614	5654.7065496064215	500.47254834606616	-115.66767635364063	5636.190445121799	480.7491765436175	-103.34729141267565	5623.065247007375	463.9374005734621	-89.6339989323993	5693.507218963984	522.4577558257927	-117.26352150290599	5672.787343369944	468.0741630198876	-108.02359081670886	5653.027062339573	436.69510015544876	-89.64283354598977	5637.217611137757	425.3078355704512	-75.6505690916224	5621.75475668898	421.3605271272226	-62.33903369498783	5701.32158436075	523.4840090827231	-106.07278597987033	5685.340355954299	470.9931388925347	-91.01076883030885	5664.869587437571	437.0722298730942	-69.49215748559001	5646.3198966687505	423.48744743448265	-51.909645434388864	5629.6553840036895	419.24301880496637	-37.003454614922276	5707.438942601088	525.5175337657785	-98.49552291549666	5698.625163671814	480.0084570495683	-78.69202457758335	5681.922954565451	450.85342497951297	-58.46517867029945	5664.635804141739	437.9678752338537	-40.72417782209976	5649.253886425217	434.0803850963546	-26.338377450635647	5714.555934781181	530.0615616243095	-89.29577802621701	5711.08030477934	490.83862053295803	-65.7702775131596	5699.522548773895	468.3319185836167	-47.363886649898845	5687.792056615633	459.33927337378907	-33.3547337898641	5674.671953490153	456.12932201599335	-19.996140834786914	5732.665997195224	1178.4998831717242	-79.19997488172457	5716.960419220233	1163.511360119416	52.294128803674745	5790.156507580646	904.4801347861159	-11.645316733676268	5842.309011518912	650.4075459438939	-80.17641739085326	5830.2146565016155	626.6744808495479	-115.22735426481013	5847.020187083598	608.0610567071992	-144.64453561937665	5861.272192008686	593.7442251445733	-161.3855320223038	5875.333746011186	580.6502208239621	-172.13791189004556	5835.973005581769	618.1967380340095	-104.89066072493159	5845.566991709106	570.2037803813026	-129.32161932710076	5864.358922784448	544.5237811197208	-147.0029410113206	5879.8715195514005	537.6225565912378	-159.52352333898435	5895.2945217310535	538.0243864174877	-170.91757953471978	5843.146802022705	616.550172380288	-93.8864734278285	5856.381331693413	568.8464639184324	-111.76333144482022	5877.817648462278	540.7725267485206	-129.52679004469252	5896.979596701865	532.4215589285952	-143.89804372090643	5914.072247364755	532.8491353922732	-156.00819071800174	5847.865808064025	616.5148103477305	-85.46205172009911	5863.517443052784	573.4489167087702	-94.09267576570676	5883.13286002398	549.0027241014782	-107.98329395602627	5902.110738095718	540.9598672933093	-121.00002693590841	5918.416546676886	541.3677476015072	-131.98596127356933	5853.849600010556	618.6268199235956	-75.25359718337859	5871.5467850892655	580.0888593930708	-76.79496580745038	5888.639762555282	560.7378971289593	-85.39679730066507	5903.152603003108	554.980078322789	-93.67163153414722	5917.982666203366	555.4039304147085	-102.70148301311315
4	0.025	6081.203	893.81699	129.612	6138.396608090941	877.5472250286643	58.96758357539392	6054.576680340914	480.4864432503395	-46.67996521219819	6058.746719461124	99.84730031877321	-117.69107854179425	5949.17490539165	20.422139859268505	16.491605961226433	6040.0084199312605	886.0157300515673	213.85097655187533	5951.797781522203	489.73846937123244	317.1606508600913	5872.792750315387	55.24157496193991	377.6938015731386	5726.222216206556	-23.970645565263393	283.09691879359417	6012.0891148521	1007.5250860383277	77.9725135433955	5947.371916818069	1061.5020976149951	30.13862811081197	5875.581089601185	1110.3255816185413	-21.338794958962495	5800.4854441715	1144.170355557866	-72.44818736517797	5720.1504975557145	1182.5355772089104	-125.4540411097172	5647.820305243711	1218.2167146580744	-173.79631170959973	5509.996418345375	1297.8413901078013	-183.72639202380563	5760.294094002973	1159.525188320054	-135.81367543697922	5788.657638065832	1084.2647840441475	-243.11554320556547	5748.426159024682	828.8649936963653	-148.84813387662297	5712.2327198792145	560.2847332802937	-109.86910691100593	5686.8904377791605	528.0467030638133	-130.5297979497928	5656.490545427939	500.2198870878699	-118.93926551134261	5637.996320967857	480.3953213572553	-106.83291857197008	5624.867947871946	463.48692058467117	-93.28880771148133	5695.17570335557	522.2887946859738	-120.1965211349746	5674.630147222686	467.7691581767601	-111.33663753622348	5654.901571885449	436.24634801490174	-93.23562965233711	5639.069514051407	424.76501302702883	-79.40498934606072	5623.559403209636	420.7366703621651	-66.21893620491838	5702.911655283533	523.2784596870572	-108.96386670409763	5687.058064530057	470.6351200348524	-94.24985775665874	5666.610869442916	436.55290633302525	-73.02976391081302	5648.028614457789	422.85249707842905	-55.63900873907188	5631.309822971523	418.51836476545066	-40.86854476581871	5708.969946976502	525.2899839348727	-101.3471395761066	5700.221567378943	479.6262706719833	-81.82082909282956	5683.5284276595585	450.32633492343894	-61.84673143544941	5666.203771262449	437.3269650960114	-44.286743972743196	5650.767929399732	433.3540462258515	-30.02668845526594	5716.007660002692	529.8096225252438	-92.09208284208047	5712.54581515622	490.43103654434674	-68.78633664354598	5700.9771247777835	467.8022487046703	-50.569521389764404	5689.210473171095	458.7236548607242	-36.686200829919954	5676.037536156998	455.4363426178687	-23.435429570791783	5732.693740367517	1178.6540786578769	-79.07268417940095	5716.617748231553	1163.0414214202622	52.351571007171614	5790.515340449684	904.3996580342463	-12.544055531016404	5843.507975568013	650.4830523655712	-82.08428516562381	5831.689845648666	626.8615126485744	-117.31627769823896	5848.725041308638	608.3798496015056	-146.73070833152843	5863.118668487188	594.1405818788298	-163.46477943772686	5877.282617631195	581.0990959652772	-174.2071003658336	5837.411119001479	618.3379829586955	-106.99858882186714	5847.288622486876	570.4150870876266	-131.62856997635086	5866.260542574401	544.8112744385055	-149.3396843185794	5881.868456814657	537.9785980241888	-161.80775647926612	5897.359168268915	538.4514535674523	-173.110436354088	5844.524406584898	616.6516755234254	-95.96868186848427	5858.002746313607	568.9947990217534	-114.02577978793228	5879.626541540531	540.9985597951372	-131.81757314903422	5898.899203702407	532.7276837722872	-146.12347144824167	5916.063858490153	533.2317069346507	-158.13266216223457	5849.193540716076	616.5860906192344	-87.52212115665449	5865.0207146411885	573.5348865962989	-96.2983074612361	5884.790030608066	549.150788903652	-110.20905873852143	5903.8696516931595	541.1821989334258	-123.16032756807023	5920.240769494336	541.66054238916	-134.0501889210472	5855.110752803222	618.6640523343418	-77.27363488583238	5872.928363848184	580.1173979630983	-78.92762410744001	5890.12897799809	560.8073191722303	-87.53781465572908	5904.708484059615	555.0993946471024	-95.76114401607407	5919.5920575765385	555.5832047408637	-104.70372932158814
